<?xml version="1.0" encoding="utf-8"?>

<svg xmlns="http://www.w3.org/2000/svg" viewBox="0 0 128 128" xmlns:bx="https://boxy-svg.com" width="128px" height="128px">

<defs><bx:export><bx:file format="svg"/></bx:export></defs>
<rect width="128" height="128" style="stroke: rgb(255, 0, 17); stroke-width: 0px; paint-order: fill; fill: rgb(255, 89, 100);"/>
<rect x="15.423" y="29.579" width="97.154" height="68.842" style="stroke: rgb(0, 0, 0); paint-order: fill;"/>
<path d="M 16.16 61.559 Q 16.16 56.247 18.368 52.087 Q 20.576 47.927 24.32 45.591 Q 28.064 43.255 32.48 43.255 Q 35.872 43.255 38.56 44.439 Q 41.248 45.623 42.912 47.735 L 42.912 43.639 L 53.856 43.639 L 53.856 96.375 L 42.912 96.375 L 42.912 74.871 Q 41.056 77.111 38.4 78.455 Q 35.744 79.799 32.352 79.799 Q 28 79.799 24.288 77.495 Q 20.576 75.191 18.368 71.031 Q 16.16 66.871 16.16 61.559 Z M 42.912 61.495 Q 42.912 58.615 41.792 56.663 Q 40.672 54.711 38.88 53.719 Q 37.088 52.727 35.104 52.727 Q 33.184 52.727 31.392 53.719 Q 29.6 54.711 28.448 56.695 Q 27.296 58.679 27.296 61.559 Q 27.296 64.439 28.448 66.391 Q 29.6 68.343 31.392 69.335 Q 33.184 70.327 35.104 70.327 Q 37.024 70.327 38.848 69.335 Q 40.672 68.343 41.792 66.359 Q 42.912 64.375 42.912 61.495 Z M 59.551 42.807 L 59.551 32.631 L 77.279 32.631 L 77.279 79.351 L 65.887 79.351 L 65.887 42.807 Z M 96.091 70.327 L 111.579 70.327 L 111.579 79.351 L 83.867 79.351 L 83.867 70.647 L 98.715 52.663 L 83.995 52.663 L 83.995 43.639 L 111.259 43.639 L 111.259 52.343 Z" style="fill: rgb(255, 255, 255); text-wrap-mode: nowrap;"/>

</svg>